<?xml version="1.0" standalone="no"?>
<!DOCTYPE svg PUBLIC "-//W3C//DTD SVG 20010904//EN"
 "http://www.w3.org/TR/2001/REC-SVG-20010904/DTD/svg10.dtd">
<svg version="1.0" xmlns="http://www.w3.org/2000/svg"
 width="500.000000pt" height="500.000000pt" viewBox="0 0 500.000000 500.000000"
 preserveAspectRatio="xMidYMid meet">
<metadata>
Created by potrace 1.11, written by Peter Selinger 2001-2013
</metadata>
<g transform="translate(0.000000,500.000000) scale(0.100000,-0.100000)"
fill="#000000" stroke="none">
<path d="M2290 4870 c-365 -38 -702 -146 -991 -319 -993 -592 -1426 -1758
-1057 -2841 50 -148 178 -407 263 -535 182 -273 433 -521 705 -698 308 -200
678 -330 1048 -368 164 -17 486 -7 637 20 848 151 1529 707 1839 1503 99 252
146 494 153 785 8 317 -23 541 -116 823 -114 345 -297 644 -555 909 -384 392
-838 625 -1376 706 -127 19 -433 27 -550 15z m570 -164 c646 -112 1211 -488
1547 -1029 506 -818 443 -1856 -160 -2602 -90 -111 -283 -297 -397 -382 -305
-228 -648 -371 -1030 -429 -159 -25 -473 -25 -630 -1 -390 60 -738 206 -1044
437 -453 342 -763 857 -861 1430 -22 129 -31 457 -16 590 30 266 98 503 211
738 112 231 230 400 409 586 196 202 385 339 636 462 227 110 430 172 690 209
134 19 512 13 645 -9z"/>
<path d="M2370 4593 c-95 -6 -271 -33 -370 -58 -385 -97 -706 -279 -986 -559
-328 -328 -528 -725 -600 -1191 -23 -150 -23 -431 0 -589 132 -919 837 -1638
1756 -1791 134 -23 402 -30 541 -16 731 77 1361 516 1685 1176 218 445 271
962 148 1447 -68 271 -182 506 -360 744 -359 481 -917 786 -1523 833 -130 11
-171 11 -291 4z m517 -177 c394 -84 696 -244 982 -521 344 -333 544 -747 591
-1224 61 -617 -188 -1242 -660 -1659 -373 -329 -880 -510 -1370 -488 -517 22
-974 226 -1330 592 -175 180 -268 313 -375 535 -120 251 -173 475 -182 765 -8
277 19 472 99 703 220 639 733 1110 1391 1277 177 45 264 53 507 49 195 -3
241 -7 347 -29z"/>
<path d="M2365 3903 c-332 -43 -612 -180 -845 -413 -161 -161 -269 -333 -343
-546 -58 -168 -72 -256 -72 -459 0 -194 12 -274 62 -430 l26 -81 -77 -111
c-84 -123 -157 -268 -176 -352 -7 -30 -10 -82 -7 -118 7 -88 41 -137 122 -178
50 -25 73 -30 156 -33 94 -4 99 -3 123 21 31 31 33 56 8 88 -17 20 -28 23
-108 24 -70 0 -97 5 -124 21 -66 38 -64 126 4 266 32 63 134 228 141 228 2 0
20 -29 40 -65 90 -162 278 -363 436 -467 281 -186 605 -269 924 -238 345 34
634 169 876 410 246 245 385 537 420 885 37 371 -100 791 -345 1062 -31 33
-56 63 -56 66 0 11 174 41 245 41 92 1 139 -18 157 -62 10 -26 8 -48 -19 -184
-10 -54 72 -92 110 -50 28 31 49 129 45 207 -5 97 -37 147 -123 190 -57 29
-66 30 -180 29 -102 -1 -138 -6 -239 -33 -118 -31 -119 -31 -140 -12 -44 40
-213 142 -300 180 -190 83 -379 122 -586 119 -69 0 -138 -3 -155 -5z m-55
-149 c0 -3 -37 -46 -82 -94 -46 -48 -112 -133 -148 -188 l-65 -101 -214 0
-214 -1 24 26 c42 45 181 154 251 196 94 56 233 114 341 143 102 27 107 28
107 19z m580 -31 c46 -13 115 -38 153 -54 72 -32 241 -128 235 -134 -6 -6
-249 -115 -256 -115 -4 0 -35 40 -70 89 -34 48 -96 125 -138 169 -87 94 -89
92 76 45z m-288 -29 c37 -31 91 -82 120 -113 55 -60 158 -193 158 -204 0 -4
-160 -7 -356 -7 l-355 0 43 62 c24 34 77 98 118 142 71 75 184 176 197 176 3
0 37 -25 75 -56z m833 -294 l29 -30 -109 0 c-59 0 -106 2 -104 4 9 9 125 54
140 55 8 1 28 -12 44 -29z m-1498 -183 c-81 -186 -147 -450 -147 -586 0 -82 3
-81 -292 -81 l-258 0 0 39 c0 46 25 183 47 261 32 111 129 312 179 370 11 13
48 15 244 12 177 -2 231 -6 227 -15z m1681 -40 c109 -173 173 -358 198 -569
l6 -58 -274 0 -275 0 -7 88 c-14 171 -69 398 -132 539 l-23 53 227 3 c125 1
230 3 234 5 3 1 24 -26 46 -61z m-968 31 c-197 -121 -530 -355 -673 -472 -57
-46 -57 -46 -21 112 28 125 72 259 110 335 l24 47 298 0 297 0 -35 -22z m349
-49 c43 -95 75 -197 100 -310 19 -93 45 -289 38 -296 -2 -2 -267 -2 -588 -1
l-584 3 135 106 c166 131 353 264 513 366 130 82 337 203 348 203 3 0 21 -32
38 -71z m-1399 -744 c0 -2 -42 -46 -93 -97 -51 -51 -119 -121 -151 -155 -31
-35 -59 -63 -61 -63 -13 0 -55 209 -55 276 l0 44 180 0 c99 0 180 -2 180 -5z
m1534 -3 c7 -12 -11 -183 -30 -277 -21 -104 -57 -219 -101 -322 l-35 -83 -440
0 -439 0 -30 67 c-69 150 -122 363 -135 538 l-7 85 606 0 c333 0 608 -4 611
-8z m678 -52 c-8 -175 -97 -432 -203 -586 l-30 -44 -229 0 c-130 0 -230 4
-230 9 0 5 16 50 35 99 50 130 83 267 101 422 9 74 18 141 20 148 3 10 62 12
271 10 l268 -3 -3 -55z m-2019 -58 c9 -123 40 -267 91 -412 23 -69 46 -133 51
-142 7 -17 -8 -18 -227 -18 l-233 0 -32 48 c-17 27 -46 77 -63 111 l-32 62 58
67 c67 78 362 372 373 372 4 0 11 -39 14 -88z m290 -814 c41 -62 110 -151 153
-197 l78 -83 -45 7 c-76 12 -251 74 -339 121 -107 57 -221 139 -290 209 l-54
55 211 0 211 0 75 -112z m797 103 c0 -36 -273 -335 -338 -370 -33 -18 -209
147 -330 310 -23 31 -42 59 -42 62 0 4 160 7 355 7 208 0 355 -4 355 -9z m535
-48 c-116 -110 -249 -196 -395 -256 -80 -33 -230 -77 -264 -77 -9 0 6 21 36
53 71 72 158 183 209 266 l44 71 215 0 215 -1 -60 -56z"/>
</g>
</svg>
